<mxfile host="app.diagrams.net" agent="Mozilla/5.0 (Windows NT 10.0; Win64; x64) AppleWebKit/537.36 (KHTML, like Gecko) Chrome/130.0.0.0 Safari/537.36" version="24.8.6">
  <diagram name="Page-1" id="2YBvvXClWsGukQMizWep">
    <mxGraphModel dx="998" dy="678" grid="1" gridSize="10" guides="1" tooltips="1" connect="1" arrows="1" fold="1" page="1" pageScale="1" pageWidth="850" pageHeight="1100" background="#ffffff" math="0" shadow="0">
      <root>
        <mxCell id="0" />
        <mxCell id="1" parent="0" />
        <mxCell id="kIjc9tb8nOZSVFgZSKF5-42" value="" style="shape=umlActor;verticalLabelPosition=bottom;verticalAlign=top;html=1;outlineConnect=0;" parent="1" vertex="1">
          <mxGeometry x="110" y="85" width="30" height="60" as="geometry" />
        </mxCell>
        <mxCell id="2TJhX8au2aPFaMWwYMit-71" value="이체취소 서비스" style="shape=umlLifeline;perimeter=lifelinePerimeter;whiteSpace=wrap;html=1;container=0;dropTarget=0;collapsible=0;recursiveResize=0;outlineConnect=0;portConstraint=eastwest;newEdgeStyle={&quot;edgeStyle&quot;:&quot;elbowEdgeStyle&quot;,&quot;elbow&quot;:&quot;vertical&quot;,&quot;curved&quot;:0,&quot;rounded&quot;:0};" vertex="1" parent="1">
          <mxGeometry x="220" y="60" width="100" height="710" as="geometry" />
        </mxCell>
        <mxCell id="2TJhX8au2aPFaMWwYMit-72" value="" style="html=1;points=[];perimeter=orthogonalPerimeter;outlineConnect=0;targetShapes=umlLifeline;portConstraint=eastwest;newEdgeStyle={&quot;edgeStyle&quot;:&quot;elbowEdgeStyle&quot;,&quot;elbow&quot;:&quot;vertical&quot;,&quot;curved&quot;:0,&quot;rounded&quot;:0};" vertex="1" parent="2TJhX8au2aPFaMWwYMit-71">
          <mxGeometry x="45" y="60" width="10" height="620" as="geometry" />
        </mxCell>
        <mxCell id="2TJhX8au2aPFaMWwYMit-73" value="이체취소" style="html=1;verticalAlign=bottom;startArrow=oval;endArrow=block;startSize=8;edgeStyle=elbowEdgeStyle;elbow=vertical;curved=0;rounded=0;" edge="1" parent="2TJhX8au2aPFaMWwYMit-71" target="2TJhX8au2aPFaMWwYMit-72">
          <mxGeometry relative="1" as="geometry">
            <mxPoint x="-40" y="70" as="sourcePoint" />
          </mxGeometry>
        </mxCell>
        <mxCell id="2TJhX8au2aPFaMWwYMit-74" value="수신모듈" style="shape=umlLifeline;perimeter=lifelinePerimeter;whiteSpace=wrap;html=1;container=0;dropTarget=0;collapsible=0;recursiveResize=0;outlineConnect=0;portConstraint=eastwest;newEdgeStyle={&quot;edgeStyle&quot;:&quot;elbowEdgeStyle&quot;,&quot;elbow&quot;:&quot;vertical&quot;,&quot;curved&quot;:0,&quot;rounded&quot;:0};" vertex="1" parent="1">
          <mxGeometry x="420" y="60" width="100" height="710" as="geometry" />
        </mxCell>
        <mxCell id="2TJhX8au2aPFaMWwYMit-75" value="" style="html=1;points=[];perimeter=orthogonalPerimeter;outlineConnect=0;targetShapes=umlLifeline;portConstraint=eastwest;newEdgeStyle={&quot;edgeStyle&quot;:&quot;elbowEdgeStyle&quot;,&quot;elbow&quot;:&quot;vertical&quot;,&quot;curved&quot;:0,&quot;rounded&quot;:0};" vertex="1" parent="2TJhX8au2aPFaMWwYMit-74">
          <mxGeometry x="45" y="70" width="10" height="60" as="geometry" />
        </mxCell>
        <mxCell id="2TJhX8au2aPFaMWwYMit-76" value="" style="html=1;points=[];perimeter=orthogonalPerimeter;outlineConnect=0;targetShapes=umlLifeline;portConstraint=eastwest;newEdgeStyle={&quot;edgeStyle&quot;:&quot;elbowEdgeStyle&quot;,&quot;elbow&quot;:&quot;vertical&quot;,&quot;curved&quot;:0,&quot;rounded&quot;:0};" vertex="1" parent="2TJhX8au2aPFaMWwYMit-74">
          <mxGeometry x="45" y="140" width="10" height="60" as="geometry" />
        </mxCell>
        <mxCell id="2TJhX8au2aPFaMWwYMit-77" value="대상건 검증" style="html=1;verticalAlign=bottom;endArrow=block;edgeStyle=elbowEdgeStyle;elbow=vertical;curved=0;rounded=0;" edge="1" parent="1" source="2TJhX8au2aPFaMWwYMit-72" target="2TJhX8au2aPFaMWwYMit-75">
          <mxGeometry relative="1" as="geometry">
            <mxPoint x="415" y="150" as="sourcePoint" />
            <Array as="points">
              <mxPoint x="400" y="140" />
            </Array>
            <mxPoint as="offset" />
          </mxGeometry>
        </mxCell>
        <mxCell id="2TJhX8au2aPFaMWwYMit-78" value="return" style="html=1;verticalAlign=bottom;endArrow=block;edgeStyle=elbowEdgeStyle;elbow=vertical;curved=0;rounded=0;" edge="1" parent="1" source="2TJhX8au2aPFaMWwYMit-75" target="2TJhX8au2aPFaMWwYMit-72">
          <mxGeometry relative="1" as="geometry">
            <mxPoint x="395" y="180" as="sourcePoint" />
            <Array as="points">
              <mxPoint x="410" y="180" />
            </Array>
            <mxPoint x="280" y="180" as="targetPoint" />
          </mxGeometry>
        </mxCell>
        <mxCell id="2TJhX8au2aPFaMWwYMit-79" value="공통모듈" style="shape=umlLifeline;perimeter=lifelinePerimeter;whiteSpace=wrap;html=1;container=0;dropTarget=0;collapsible=0;recursiveResize=0;outlineConnect=0;portConstraint=eastwest;newEdgeStyle={&quot;edgeStyle&quot;:&quot;elbowEdgeStyle&quot;,&quot;elbow&quot;:&quot;vertical&quot;,&quot;curved&quot;:0,&quot;rounded&quot;:0};" vertex="1" parent="1">
          <mxGeometry x="620" y="60" width="100" height="710" as="geometry" />
        </mxCell>
        <mxCell id="2TJhX8au2aPFaMWwYMit-80" value="" style="html=1;points=[];perimeter=orthogonalPerimeter;outlineConnect=0;targetShapes=umlLifeline;portConstraint=eastwest;newEdgeStyle={&quot;edgeStyle&quot;:&quot;elbowEdgeStyle&quot;,&quot;elbow&quot;:&quot;vertical&quot;,&quot;curved&quot;:0,&quot;rounded&quot;:0};" vertex="1" parent="2TJhX8au2aPFaMWwYMit-79">
          <mxGeometry x="45" y="390" width="10" height="120" as="geometry" />
        </mxCell>
        <mxCell id="2TJhX8au2aPFaMWwYMit-81" value="알림모듈" style="shape=umlLifeline;perimeter=lifelinePerimeter;whiteSpace=wrap;html=1;container=0;dropTarget=0;collapsible=0;recursiveResize=0;outlineConnect=0;portConstraint=eastwest;newEdgeStyle={&quot;edgeStyle&quot;:&quot;elbowEdgeStyle&quot;,&quot;elbow&quot;:&quot;vertical&quot;,&quot;curved&quot;:0,&quot;rounded&quot;:0};" vertex="1" parent="1">
          <mxGeometry x="820" y="60" width="100" height="710" as="geometry" />
        </mxCell>
        <mxCell id="2TJhX8au2aPFaMWwYMit-82" value="" style="html=1;points=[];perimeter=orthogonalPerimeter;outlineConnect=0;targetShapes=umlLifeline;portConstraint=eastwest;newEdgeStyle={&quot;edgeStyle&quot;:&quot;elbowEdgeStyle&quot;,&quot;elbow&quot;:&quot;vertical&quot;,&quot;curved&quot;:0,&quot;rounded&quot;:0};" vertex="1" parent="2TJhX8au2aPFaMWwYMit-81">
          <mxGeometry x="45" y="530" width="10" height="80" as="geometry" />
        </mxCell>
        <mxCell id="2TJhX8au2aPFaMWwYMit-83" value="레포지토리" style="shape=umlLifeline;perimeter=lifelinePerimeter;whiteSpace=wrap;html=1;container=0;dropTarget=0;collapsible=0;recursiveResize=0;outlineConnect=0;portConstraint=eastwest;newEdgeStyle={&quot;edgeStyle&quot;:&quot;elbowEdgeStyle&quot;,&quot;elbow&quot;:&quot;vertical&quot;,&quot;curved&quot;:0,&quot;rounded&quot;:0};" vertex="1" parent="1">
          <mxGeometry x="1020" y="60" width="100" height="710" as="geometry" />
        </mxCell>
        <mxCell id="2TJhX8au2aPFaMWwYMit-84" value="&lt;div style=&quot;&quot;&gt;&lt;br&gt;&lt;/div&gt;" style="text;html=1;align=left;verticalAlign=middle;resizable=0;points=[];autosize=1;strokeColor=none;fillColor=none;" vertex="1" parent="1">
          <mxGeometry x="480" y="145" width="20" height="30" as="geometry" />
        </mxCell>
        <mxCell id="2TJhX8au2aPFaMWwYMit-85" value="이체취소 프로세스" style="html=1;verticalAlign=bottom;endArrow=block;edgeStyle=elbowEdgeStyle;elbow=vertical;curved=0;rounded=0;" edge="1" parent="1" target="2TJhX8au2aPFaMWwYMit-96">
          <mxGeometry relative="1" as="geometry">
            <mxPoint x="276.63" y="330" as="sourcePoint" />
            <Array as="points">
              <mxPoint x="401.63" y="330" />
            </Array>
            <mxPoint x="666.13" y="330" as="targetPoint" />
            <mxPoint as="offset" />
          </mxGeometry>
        </mxCell>
        <mxCell id="2TJhX8au2aPFaMWwYMit-86" value="return" style="html=1;verticalAlign=bottom;endArrow=block;edgeStyle=elbowEdgeStyle;elbow=vertical;curved=0;rounded=0;" edge="1" parent="1">
          <mxGeometry relative="1" as="geometry">
            <mxPoint x="465" y="419.5" as="sourcePoint" />
            <Array as="points" />
            <mxPoint x="271.63" y="419.5" as="targetPoint" />
          </mxGeometry>
        </mxCell>
        <mxCell id="2TJhX8au2aPFaMWwYMit-87" value="&lt;div style=&quot;&quot;&gt;&lt;span style=&quot;font-size: 11px; text-align: center; background-color: rgb(255, 255, 255);&quot;&gt;수신거래내역 SELECT(DEPOSIT_TRSC_HIS)&lt;/span&gt;&lt;/div&gt;&lt;div style=&quot;&quot;&gt;&lt;span style=&quot;font-size: 11px; text-align: center; background-color: rgb(255, 255, 255);&quot;&gt;거래프로세스코드&amp;nbsp;TRANSFER_PROC_CD 에 취소(CANCEL) 로 업데이트&lt;/span&gt;&lt;/div&gt;" style="text;html=1;align=left;verticalAlign=middle;resizable=0;points=[];autosize=1;strokeColor=none;fillColor=none;" vertex="1" parent="1">
          <mxGeometry x="678.88" y="315" width="390" height="40" as="geometry" />
        </mxCell>
        <mxCell id="2TJhX8au2aPFaMWwYMit-90" value="" style="html=1;verticalAlign=bottom;endArrow=block;edgeStyle=elbowEdgeStyle;elbow=vertical;curved=0;rounded=0;" edge="1" parent="1" source="2TJhX8au2aPFaMWwYMit-96">
          <mxGeometry relative="1" as="geometry">
            <mxPoint x="678.88" y="350" as="sourcePoint" />
            <Array as="points">
              <mxPoint x="813.88" y="350" />
            </Array>
            <mxPoint x="1068.38" y="350" as="targetPoint" />
            <mxPoint as="offset" />
          </mxGeometry>
        </mxCell>
        <mxCell id="2TJhX8au2aPFaMWwYMit-91" value="이체취소" style="html=1;verticalAlign=bottom;startArrow=oval;endArrow=block;startSize=8;edgeStyle=elbowEdgeStyle;elbow=vertical;curved=0;rounded=0;" edge="1" parent="1">
          <mxGeometry relative="1" as="geometry">
            <mxPoint x="264.5" y="720" as="sourcePoint" />
            <mxPoint x="180" y="720" as="targetPoint" />
          </mxGeometry>
        </mxCell>
        <mxCell id="2TJhX8au2aPFaMWwYMit-92" value="수신거래내역 SELECT(DEPOSIT_TRSC_HIS)&lt;br&gt;거래프로세스코드&amp;nbsp;TRANSFER_PROC_CD 에 진행중,&amp;nbsp;&lt;br&gt;입금지급코드 DEBIT_CREDIT_CD에 송금거래&amp;nbsp;조회" style="html=1;verticalAlign=bottom;endArrow=block;edgeStyle=elbowEdgeStyle;elbow=vertical;curved=0;rounded=0;" edge="1" parent="1" target="2TJhX8au2aPFaMWwYMit-83">
          <mxGeometry relative="1" as="geometry">
            <mxPoint x="475" y="170" as="sourcePoint" />
            <Array as="points">
              <mxPoint x="590" y="170" />
              <mxPoint x="615" y="159.5" />
            </Array>
            <mxPoint x="870" y="159.5" as="targetPoint" />
            <mxPoint as="offset" />
          </mxGeometry>
        </mxCell>
        <mxCell id="2TJhX8au2aPFaMWwYMit-93" value="대상건 상태변경" style="html=1;verticalAlign=bottom;endArrow=block;edgeStyle=elbowEdgeStyle;elbow=vertical;curved=0;rounded=0;" edge="1" parent="1">
          <mxGeometry relative="1" as="geometry">
            <mxPoint x="270" y="210" as="sourcePoint" />
            <Array as="points">
              <mxPoint x="395" y="210" />
            </Array>
            <mxPoint as="offset" />
            <mxPoint x="460" y="210" as="targetPoint" />
          </mxGeometry>
        </mxCell>
        <mxCell id="2TJhX8au2aPFaMWwYMit-94" value="return" style="html=1;verticalAlign=bottom;endArrow=block;edgeStyle=elbowEdgeStyle;elbow=vertical;curved=0;rounded=0;" edge="1" parent="1">
          <mxGeometry relative="1" as="geometry">
            <mxPoint x="460" y="250" as="sourcePoint" />
            <Array as="points">
              <mxPoint x="405" y="250" />
            </Array>
            <mxPoint x="270" y="250" as="targetPoint" />
          </mxGeometry>
        </mxCell>
        <mxCell id="2TJhX8au2aPFaMWwYMit-95" value="수신거래내역 UPDATE(DEPOSIT_TRSC_HIS)&lt;div&gt;거래프로세스코드 TRANSFER_PROC_CD 에 보류(PENDING)으로 업데이트&lt;/div&gt;" style="html=1;verticalAlign=bottom;endArrow=block;edgeStyle=elbowEdgeStyle;elbow=vertical;curved=0;rounded=0;" edge="1" parent="1">
          <mxGeometry x="0.0002" relative="1" as="geometry">
            <mxPoint x="470" y="231" as="sourcePoint" />
            <Array as="points">
              <mxPoint x="591.38" y="230.5" />
              <mxPoint x="616.38" y="220" />
            </Array>
            <mxPoint x="1071.38" y="230.5" as="targetPoint" />
            <mxPoint as="offset" />
          </mxGeometry>
        </mxCell>
        <mxCell id="2TJhX8au2aPFaMWwYMit-96" value="" style="html=1;points=[];perimeter=orthogonalPerimeter;outlineConnect=0;targetShapes=umlLifeline;portConstraint=eastwest;newEdgeStyle={&quot;edgeStyle&quot;:&quot;elbowEdgeStyle&quot;,&quot;elbow&quot;:&quot;vertical&quot;,&quot;curved&quot;:0,&quot;rounded&quot;:0};" vertex="1" parent="1">
          <mxGeometry x="465" y="320" width="10" height="110" as="geometry" />
        </mxCell>
        <mxCell id="2TJhX8au2aPFaMWwYMit-97" value="수신계좌번호 UPDATE(DEPOSIT_INFO)&lt;div&gt;잔액 변경&lt;/div&gt;" style="html=1;verticalAlign=bottom;endArrow=block;edgeStyle=elbowEdgeStyle;elbow=vertical;curved=0;rounded=0;" edge="1" parent="1">
          <mxGeometry relative="1" as="geometry">
            <mxPoint x="475" y="400" as="sourcePoint" />
            <Array as="points">
              <mxPoint x="813.88" y="400" />
            </Array>
            <mxPoint x="1068.38" y="400" as="targetPoint" />
            <mxPoint as="offset" />
          </mxGeometry>
        </mxCell>
        <mxCell id="2TJhX8au2aPFaMWwYMit-98" value="연관관계 거래 취소 프로세스" style="html=1;verticalAlign=bottom;endArrow=block;edgeStyle=elbowEdgeStyle;elbow=vertical;curved=0;rounded=0;entryX=0.5;entryY=0.182;entryDx=0;entryDy=0;entryPerimeter=0;" edge="1" parent="1" target="2TJhX8au2aPFaMWwYMit-80">
          <mxGeometry relative="1" as="geometry">
            <mxPoint x="276.63" y="470" as="sourcePoint" />
            <Array as="points" />
            <mxPoint x="465" y="470" as="targetPoint" />
            <mxPoint as="offset" />
          </mxGeometry>
        </mxCell>
        <mxCell id="2TJhX8au2aPFaMWwYMit-99" value="거래연관관계 SELECT (TRSC_RELATION)&lt;div&gt;해당 거래의 연관거래 확인&lt;/div&gt;" style="html=1;verticalAlign=bottom;endArrow=block;edgeStyle=elbowEdgeStyle;elbow=vertical;curved=0;rounded=0;" edge="1" parent="1" source="2TJhX8au2aPFaMWwYMit-80" target="2TJhX8au2aPFaMWwYMit-83">
          <mxGeometry relative="1" as="geometry">
            <mxPoint x="678.88" y="490" as="sourcePoint" />
            <Array as="points">
              <mxPoint x="1017.76" y="490" />
            </Array>
            <mxPoint x="1272.2600000000002" y="490" as="targetPoint" />
            <mxPoint as="offset" />
          </mxGeometry>
        </mxCell>
        <mxCell id="2TJhX8au2aPFaMWwYMit-100" value="case" style="shape=umlFrame;whiteSpace=wrap;html=1;pointerEvents=0;" vertex="1" parent="1">
          <mxGeometry x="650" y="500" width="450" height="50" as="geometry" />
        </mxCell>
        <mxCell id="2TJhX8au2aPFaMWwYMit-101" value="&lt;div style=&quot;&quot;&gt;취소거래와 연관된 거래도 같이 취소처리&lt;/div&gt;" style="text;html=1;align=left;verticalAlign=middle;resizable=0;points=[];autosize=1;strokeColor=none;fillColor=none;" vertex="1" parent="1">
          <mxGeometry x="720" y="500" width="240" height="30" as="geometry" />
        </mxCell>
        <mxCell id="2TJhX8au2aPFaMWwYMit-102" value="return" style="html=1;verticalAlign=bottom;endArrow=block;edgeStyle=elbowEdgeStyle;elbow=vertical;curved=0;rounded=0;" edge="1" parent="1" target="2TJhX8au2aPFaMWwYMit-72">
          <mxGeometry relative="1" as="geometry">
            <mxPoint x="665" y="560" as="sourcePoint" />
            <Array as="points">
              <mxPoint x="610" y="560" />
            </Array>
            <mxPoint x="475" y="560" as="targetPoint" />
          </mxGeometry>
        </mxCell>
        <mxCell id="2TJhX8au2aPFaMWwYMit-103" value="알림메시지 큐 등록" style="html=1;verticalAlign=bottom;endArrow=block;edgeStyle=elbowEdgeStyle;elbow=vertical;curved=0;rounded=0;" edge="1" parent="1" target="2TJhX8au2aPFaMWwYMit-82">
          <mxGeometry relative="1" as="geometry">
            <mxPoint x="273.31" y="610" as="sourcePoint" />
            <Array as="points" />
            <mxPoint x="666.68" y="612" as="targetPoint" />
            <mxPoint as="offset" />
          </mxGeometry>
        </mxCell>
        <mxCell id="2TJhX8au2aPFaMWwYMit-104" value="return" style="html=1;verticalAlign=bottom;endArrow=block;edgeStyle=elbowEdgeStyle;elbow=vertical;curved=0;rounded=0;" edge="1" parent="1" target="2TJhX8au2aPFaMWwYMit-72">
          <mxGeometry relative="1" as="geometry">
            <mxPoint x="865" y="650" as="sourcePoint" />
            <Array as="points">
              <mxPoint x="810" y="650" />
            </Array>
            <mxPoint x="475" y="650" as="targetPoint" />
          </mxGeometry>
        </mxCell>
        <mxCell id="2TJhX8au2aPFaMWwYMit-105" value="&lt;div style=&quot;&quot;&gt;알림메시지큐 INSERT (NOTIFICATION_QUEUE)&lt;/div&gt;&lt;div style=&quot;&quot;&gt;PK는 AUTO INCREASE 설정하여 저장만 함&lt;/div&gt;&lt;div style=&quot;&quot;&gt;추후 데몬성 배치에서 카프카 등으로 실제 알림전송&lt;/div&gt;" style="text;html=1;align=left;verticalAlign=middle;resizable=0;points=[];autosize=1;strokeColor=none;fillColor=none;" vertex="1" parent="1">
          <mxGeometry x="880" y="600" width="300" height="60" as="geometry" />
        </mxCell>
      </root>
    </mxGraphModel>
  </diagram>
</mxfile>
